<?xml version="1.0" encoding="utf-8"?>
<!-- Generator: Adobe Illustrator 19.1.1, SVG Export Plug-In . SVG Version: 6.00 Build 0)  -->
<svg version="1.1" xmlns="http://www.w3.org/2000/svg" xmlns:xlink="http://www.w3.org/1999/xlink" x="0px" y="0px"
	 viewBox="0 0 491 566.9" style="enable-background:new 0 0 491 566.9;" xml:space="preserve">
<style type="text/css">
	.st0{fill:#FBE8B5;}
	.st1{fill:#1D437D;}
	.st2{font-family:'Helvetica';}
	.st3{font-size:17.0889px;}
	.st4{fill:#173944;}
	.st5{fill:#E22735;}
	.st6{fill:#4EB748;}
	.st7{fill:#FFFFFF;}
	.st8{fill:#A4DCE2;}
	.st9{fill:#048196;}
	.st10{fill:none;stroke:#4EB748;stroke-width:6;stroke-miterlimit:10;}
	.st11{opacity:0.2;fill:#048196;}
</style>
<g id="Background">
	<polygon class="st0" points="245.5,547.6 16.8,415.5 16.8,151.4 245.5,19.4 474.2,151.4 474.2,415.5 	"/>
	<g>
		<text transform="matrix(0.866 -0.5 0.5 0.866 246.3175 534.6247)" class="st1 st2 st3">github.com/rjdverse/rjd3providers</text>
	</g>
</g>
<g id="Hexagone">
	<path class="st7" d="M163.8,90.2C163.8,90.2,163.7,90.2,163.8,90.2l0,212.1l154.5,0l0-178L280,90.2H163.8z"/>
	<g id="Barplot">
		<rect x="244.8" y="266.2" class="st8" width="15.3" height="16.4"/>
		<rect x="275.4" y="266.2" class="st8" width="15.3" height="30.8"/>
		<rect x="306" y="266.2" class="st8" width="15.3" height="12"/>
	</g>
	<rect id="Axe" x="220.9" y="264.7" class="st4" width="101.6" height="3.1"/>
	<polygon class="st1" points="320,275.7 296.6,239.3 268,251.7 235.8,256.8 231.7,235.7 235.6,234.9 239,252.3 266.9,247.8 
		298.2,234.3 323.4,273.6 	"/>
	<polygon class="st5" points="224,275.6 222,272.1 235.3,264.4 269.4,216.7 298.5,265.7 320,246.8 322.7,249.8 297.5,271.9 
		269.1,224 238.1,267.4 	"/>
	<g id="Spreadsheet">
		<rect x="180.4" y="217.8" class="st6" width="70" height="6.2"/>
		<rect x="180.4" y="243.6" class="st6" width="47.4" height="6.2"/>
		<rect x="180.6" y="269.4" class="st6" width="41.5" height="6.2"/>
		<path class="st6" d="M318.3,311H163.8c-4.8,0-8.7-3.9-8.7-8.7V90.2c0-4.8,3.9-8.7,8.7-8.7h119.6l43.7,38.9v181.8
			C327,307.1,323.1,311,318.3,311z M163.8,90.2C163.8,90.2,163.7,90.2,163.8,90.2l0,212.1l154.5,0l0-178L280,90.2H163.8z"/>
		<line class="st10" x1="180.4" y1="143.3" x2="301.5" y2="143.3"/>
		<line class="st10" x1="180.4" y1="169.2" x2="301.8" y2="169.2"/>
		<rect x="180.6" y="191.9" class="st6" width="120.9" height="6.2"/>
	</g>
	<path class="st6" d="M245.5,0L0,141.7v283.5l245.5,141.7L491,425.2V141.7L245.5,0z M474.2,415.5l-228.7,132l-228.7-132V151.4
		l228.7-132l228.7,132V415.5z"/>
	<path id="Loupe_1_" class="st9" d="M346,297.6c13-31.3-0.1-67.8-30.3-83.5c-15.5-8.1-33.4-9.7-50.1-4.4
		c-16.8,5.3-30.5,16.7-38.6,32.3c-16.8,32.1-4.3,72,27.8,88.8c14.7,7.7,31.7,9.5,47.8,5.1c15.5-4.2,28.9-13.9,37.6-27.3
		c24.4,12.8,48.8,25.5,73.2,38.3c2-3.6,4.1-7.2,6.1-10.8C395,323.2,370.5,310.4,346,297.6z M337.9,299.9
		c-7.3,14.1-19.7,24.4-34.9,29.2c-15.2,4.8-31.3,3.3-45.3-4c-14.1-7.3-24.4-19.7-29.2-34.9c-4.8-15.2-3.3-31.3,4-45.3
		c6.4-12.3,16.5-21.3,28.2-26.6c16.1-7.2,35.2-7.3,52,1.5C341.8,234.9,353.1,270.9,337.9,299.9z"/>
	<path class="st11" d="M337.9,299.9c-7.3,14.1-19.7,24.4-34.9,29.2c-15.2,4.8-31.3,3.3-45.3-4c-14.1-7.3-24.4-19.7-29.2-34.9
		c-4.8-15.2-3.3-31.3,4-45.3c6.4-12.3,16.5-21.3,28.2-26.6c16.1-7.2,35.2-7.3,52,1.5C341.8,234.9,353.1,270.9,337.9,299.9z"/>
</g>
<g id="Text">
	<g>
		<g>
			<path class="st6" d="M54.7,353.9l0.6,3.5c2.4-3.8,5.5-4.3,8.6-4.3c3.2,0,6.2,1.2,7.9,2.9l-3.4,6.6c-1.5-1.3-3-2-5.5-2
				c-4,0-7.6,2.1-7.6,7.7v16.1h-7.6v-30.6H54.7z"/>
			<path class="st6" d="M82.1,353.8V391c0,7.6-3.3,12.5-10.2,12.5c-2.2,0-4.6-0.6-6.8-2l2.7-5.9c1.3,0.6,2.5,0.9,3.7,0.9
				c2.5-0.1,3-2,3-5.4v-37.2H82.1z M73.9,345.2c0,5.9,8.9,5.9,8.9,0S73.9,339.3,73.9,345.2z"/>
			<path class="st6" d="M120.3,341.1v43.3h-7.1l-0.5-4.2c-2.4,3.7-6.1,4.9-9.9,4.9c-9,0-15.7-6-15.7-16c0-10.5,6.6-16,15.6-16
				c3.2,0,8.2,1.7,10,4.9v-16.9H120.3z M94.7,369.2c0,5.3,3.8,9,8.7,9c4.8,0,8.9-3.5,8.9-9c0-5.3-4.1-8.9-8.9-8.9
				C98.5,360.2,94.7,363.6,94.7,369.2z"/>
			<path class="st5" d="M136.5,365.6v-6.7h6.3c4.4,0,9.1-1.2,9.1-5.2c0-2.5-2-5.8-8.9-5.8c-3.8,0-9.1,1.4-9.1,5.3h-8.2
				c0-9.4,9.3-12.8,17.3-12.8c8.2,0,17,4,17,13.2c0,3.4-2.2,7.4-6,8.6c4.2,1.4,7.1,5.5,7.1,9.1c0,10.6-10,13.8-18.4,13.8
				c-8.2,0-17.7-3.5-17.7-13.3h8.2c0,4.5,6,6,9.5,6c4.2,0,9.7-1.7,9.7-6.4c0-2.6-1.4-5.8-9.2-5.8H136.5z"/>
			<path class="st6" d="M167.4,397.2v-43.3h7.1l0.5,4.2c2.4-3.4,6.4-4.9,9.9-4.9c9.4,0,15.7,7,15.7,16c0,8.9-5.6,16-15.4,16
				c-3.2,0-8-1-10.2-4.3v16.4H167.4z M193,369.2c0-4.8-3.2-8.7-8.7-8.7c-5.5,0-8.7,3.9-8.7,8.7s3.5,8.7,8.7,8.7
				C189.5,377.9,193,374,193,369.2z"/>
			<path class="st6" d="M213.2,353.9l0.6,3.5c2.4-3.8,5.5-4.3,8.6-4.3c3.2,0,6.2,1.2,7.9,2.9l-3.4,6.6c-1.5-1.3-3-2-5.5-2
				c-4,0-7.6,2.1-7.6,7.7v16.1h-7.6v-30.6H213.2z"/>
			<path class="st6" d="M263.4,369.2c0,8.8-6,15.9-15.9,15.9c-9.9,0-15.9-7.1-15.9-15.9c0-8.7,6.1-15.9,15.8-15.9
				C257.2,353.3,263.4,360.5,263.4,369.2z M239.2,369.2c0,4.6,2.8,9,8.3,9s8.3-4.3,8.3-9c0-4.6-3.2-9.1-8.3-9.1
				C242,360.2,239.2,364.6,239.2,369.2z"/>
			<path class="st6" d="M299.7,353.8l-13,30.8h-8.2l-13.1-30.8h8.2l4.2,10.1l4.7,12.9l4.7-12.8l4.2-10.2H299.7z"/>
			<path class="st6" d="M311.6,345.3c0,5.9-8.9,5.9-8.9,0S311.6,339.4,311.6,345.3z M303.4,353.8v30.7h7.6v-30.7H303.4z"/>
			<path class="st6" d="M349.5,341.1v43.3h-7.1l-0.5-4.2c-2.4,3.7-6.1,4.9-9.9,4.9c-9,0-15.7-6-15.7-16c0-10.5,6.6-16,15.6-16
				c3.2,0,8.2,1.7,10,4.9v-16.9H349.5z M323.9,369.2c0,5.3,3.8,9,8.7,9c4.8,0,8.9-3.5,8.9-9c0-5.3-4.1-8.9-8.9-8.9
				C327.7,360.2,323.9,363.6,323.9,369.2z"/>
			<path class="st6" d="M363.2,371.9c0.5,3.8,3.8,6.5,9.1,6.5c2.8,0,6.4-1.1,8.2-2.9l4.8,4.8c-3.2,3.3-8.5,5-13.1,5
				c-10.5,0-16.8-6.5-16.8-16.3c0-9.3,6.3-16,16.2-16c10.2,0,16.6,6.3,15.4,18.9H363.2z M379.8,365.6c-0.5-4-3.6-6-7.9-6
				c-4.1,0-7.4,2-8.6,6H379.8z"/>
			<path class="st6" d="M399.9,353.9l0.6,3.5c2.4-3.8,5.5-4.3,8.6-4.3c3.2,0,6.2,1.2,7.9,2.9l-3.4,6.6c-1.5-1.3-3-2-5.5-2
				c-4,0-7.6,2.1-7.6,7.7v16.1h-7.6v-30.6H399.9z"/>
			<path class="st6" d="M439.7,362c-2.2-2-4.6-2.7-7.6-2.7c-3.6,0-5.6,1.1-5.6,3c0,2,1.8,3.1,5.7,3.3c5.8,0.4,13.1,1.7,13.1,9.8
				c0,5.4-4.4,10-13.1,10c-4.8,0-9.7-0.8-14.1-5.5l3.7-5.4c2.2,2.4,7.1,4.2,10.5,4.3c2.9,0.1,5.5-1.4,5.5-3.7c0-2.1-1.7-3-6.1-3.2
				c-5.8-0.4-12.6-2.5-12.6-9.5c0-7.1,7.3-9.5,12.9-9.5c4.8,0,8.4,0.9,11.9,4L439.7,362z"/>
		</g>
	</g>
</g>
</svg>
